<?xml version="1.0" encoding="utf-8"?>
<!-- Generator: Adobe Illustrator 23.1.1, SVG Export Plug-In . SVG Version: 6.00 Build 0)  -->
<svg version="1.1" xmlns="http://www.w3.org/2000/svg" xmlns:xlink="http://www.w3.org/1999/xlink" x="0px" y="0px"
	 viewBox="0 0 51.26 51.26" style="enable-background:new 0 0 51.26 51.26;" xml:space="preserve">
<style type="text/css">
	.st0{fill:#12284C;}
	.st1{fill:none;}
	.st2{fill:#647691;}
	.st3{fill:none;stroke:#12284C;stroke-width:1.25;stroke-linecap:round;stroke-linejoin:round;stroke-miterlimit:10;}
	.st4{fill:none;stroke:#12284C;stroke-width:1.3881;stroke-linejoin:round;stroke-miterlimit:10;}
	.st5{fill:none;stroke:#12284C;stroke-width:1.25;stroke-linecap:round;stroke-miterlimit:10;}
	.st6{fill-rule:evenodd;clip-rule:evenodd;fill:#12284C;}
</style>
<g id="Layer_1">
</g>
<g id="Layer_2">
	<g>
		<path class="st0" d="M11.6,16.52h17.27h10.79c1.78,0,3.24-1.46,3.24-3.24c0-1.78-1.46-3.24-3.24-3.24H28.87H11.6
			c-1.78,0-3.24,1.46-3.24,3.24C8.36,15.06,9.82,16.52,11.6,16.52z"/>
		<path class="st0" d="M39.66,22.07H28.87H11.6c-1.78,0-3.24,1.46-3.24,3.24c0,1.78,1.46,3.24,3.24,3.24h17.27h10.79
			c1.78,0,3.24-1.46,3.24-3.24C42.9,23.53,41.44,22.07,39.66,22.07z"/>
		<path class="st0" d="M39.66,34.1H28.87H11.6c-1.78,0-3.24,1.46-3.24,3.24c0,1.78,1.46,3.24,3.24,3.24h17.27h10.79
			c1.78,0,3.24-1.46,3.24-3.24C42.9,35.56,41.44,34.1,39.66,34.1z"/>
	</g>
</g>
</svg>
